<svg xmlns="http://www.w3.org/2000/svg" xmlns:xlink="http://www.w3.org/1999/xlink" width="300" zoomAndPan="magnify" viewBox="0 0 224.87999 149.999998" height="200" preserveAspectRatio="xMidYMid meet" version="1.0"><defs><g/><clipPath id="887dea0ab9"><path d="M 0 24.058594 L 224.761719 24.058594 L 224.761719 84.777344 L 0 84.777344 Z M 0 24.058594 " clip-rule="nonzero"/></clipPath></defs><g clip-path="url(#887dea0ab9)"><path fill="#ff914d" d="M 131.777344 84.96875 C 131.261719 79.347656 129.777344 73.988281 127.332031 68.898438 C 127.222656 68.671875 127.15625 68.4375 127.128906 68.191406 C 127.097656 67.945312 127.109375 67.699219 127.164062 67.457031 C 127.214844 67.210938 127.304688 66.984375 127.433594 66.769531 C 127.5625 66.558594 127.71875 66.371094 127.910156 66.210938 C 128.097656 66.046875 128.308594 65.921875 128.539062 65.832031 C 128.769531 65.738281 129.011719 65.6875 129.257812 65.675781 C 129.507812 65.664062 129.75 65.691406 129.992188 65.761719 C 130.230469 65.828125 130.453125 65.933594 130.65625 66.074219 C 136.546875 70.160156 144.019531 74.683594 151.566406 77.503906 C 157.511719 79.722656 161.398438 81.675781 163.9375 83.265625 C 164.582031 83.65625 164.949219 84.222656 165.046875 84.96875 L 224.878906 84.96875 L 224.691406 77.890625 C 224.6875 77.699219 224.644531 77.515625 224.570312 77.339844 C 224.496094 77.164062 224.390625 77.007812 224.253906 76.875 C 224.121094 76.738281 223.964844 76.632812 223.789062 76.558594 C 223.613281 76.484375 223.433594 76.445312 223.242188 76.4375 L 215.585938 76.328125 C 215.367188 76.324219 215.164062 76.367188 214.964844 76.453125 L 210.5625 78.386719 C 210.355469 78.476562 210.140625 78.519531 209.914062 78.511719 L 180.289062 77.546875 C 180.207031 77.554688 180.128906 77.554688 180.046875 77.546875 C 116.617188 65.300781 127.972656 17.917969 45.8125 24.734375 C 13.777344 27.390625 0 54.703125 0 84.566406 C 0 84.699219 0 84.835938 0 84.96875 Z M 103.441406 63.507812 C 103.945312 63.507812 104.429688 63.605469 104.894531 63.796875 C 105.363281 63.992188 105.773438 64.265625 106.128906 64.621094 C 106.484375 64.976562 106.757812 65.390625 106.953125 65.855469 C 107.144531 66.320312 107.242188 66.804688 107.242188 67.308594 C 107.242188 67.8125 107.144531 68.296875 106.953125 68.761719 C 106.757812 69.226562 106.484375 69.636719 106.128906 69.996094 C 105.773438 70.351562 105.363281 70.625 104.894531 70.816406 C 104.429688 71.011719 103.945312 71.105469 103.441406 71.105469 C 102.9375 71.105469 102.453125 71.011719 101.988281 70.816406 C 101.523438 70.625 101.113281 70.351562 100.753906 69.996094 C 100.398438 69.636719 100.125 69.226562 99.933594 68.761719 C 99.738281 68.296875 99.644531 67.8125 99.644531 67.308594 C 99.644531 66.804688 99.738281 66.320312 99.933594 65.855469 C 100.125 65.390625 100.398438 64.976562 100.753906 64.621094 C 101.113281 64.265625 101.523438 63.992188 101.988281 63.796875 C 102.453125 63.605469 102.9375 63.507812 103.441406 63.507812 Z M 103.441406 76.148438 C 103.945312 76.148438 104.429688 76.246094 104.894531 76.4375 C 105.363281 76.632812 105.773438 76.90625 106.128906 77.261719 C 106.484375 77.617188 106.757812 78.027344 106.953125 78.496094 C 107.144531 78.960938 107.242188 79.445312 107.242188 79.949219 C 107.242188 80.453125 107.144531 80.9375 106.953125 81.402344 C 106.757812 81.867188 106.484375 82.277344 106.128906 82.636719 C 105.773438 82.992188 105.363281 83.265625 104.894531 83.457031 C 104.429688 83.652344 103.945312 83.746094 103.441406 83.746094 C 102.9375 83.746094 102.453125 83.652344 101.988281 83.457031 C 101.523438 83.265625 101.113281 82.992188 100.753906 82.636719 C 100.398438 82.277344 100.125 81.867188 99.933594 81.402344 C 99.738281 80.9375 99.644531 80.453125 99.644531 79.949219 C 99.644531 79.445312 99.738281 78.960938 99.933594 78.496094 C 100.125 78.027344 100.398438 77.617188 100.753906 77.261719 C 101.113281 76.90625 101.523438 76.632812 101.988281 76.4375 C 102.453125 76.246094 102.9375 76.148438 103.441406 76.148438 Z M 89.085938 50.90625 C 89.589844 50.90625 90.074219 51.003906 90.539062 51.195312 C 91.003906 51.390625 91.417969 51.664062 91.773438 52.019531 C 92.128906 52.378906 92.402344 52.789062 92.597656 53.253906 C 92.789062 53.71875 92.886719 54.203125 92.886719 54.707031 C 92.886719 55.210938 92.789062 55.695312 92.59375 56.164062 C 92.402344 56.628906 92.128906 57.039062 91.769531 57.394531 C 91.414062 57.75 91.003906 58.023438 90.539062 58.21875 C 90.070312 58.410156 89.585938 58.507812 89.082031 58.507812 C 88.578125 58.503906 88.09375 58.410156 87.628906 58.214844 C 87.164062 58.023438 86.753906 57.746094 86.394531 57.390625 C 86.039062 57.035156 85.765625 56.621094 85.574219 56.15625 C 85.382812 55.691406 85.285156 55.207031 85.285156 54.703125 C 85.285156 54.199219 85.382812 53.714844 85.578125 53.25 C 85.769531 52.785156 86.042969 52.375 86.402344 52.019531 C 86.757812 51.664062 87.167969 51.386719 87.632812 51.195312 C 88.097656 51.003906 88.582031 50.90625 89.085938 50.90625 Z M 89.085938 63.507812 C 89.589844 63.507812 90.074219 63.605469 90.539062 63.796875 C 91.003906 63.992188 91.417969 64.265625 91.773438 64.621094 C 92.128906 64.976562 92.402344 65.390625 92.597656 65.855469 C 92.789062 66.320312 92.886719 66.804688 92.886719 67.308594 C 92.886719 67.8125 92.789062 68.296875 92.597656 68.761719 C 92.402344 69.226562 92.128906 69.636719 91.773438 69.996094 C 91.417969 70.351562 91.003906 70.625 90.539062 70.816406 C 90.074219 71.011719 89.589844 71.105469 89.085938 71.105469 C 88.582031 71.105469 88.097656 71.011719 87.632812 70.816406 C 87.167969 70.625 86.753906 70.351562 86.398438 69.996094 C 86.042969 69.636719 85.769531 69.226562 85.574219 68.761719 C 85.382812 68.296875 85.285156 67.8125 85.285156 67.308594 C 85.285156 66.804688 85.382812 66.320312 85.574219 65.855469 C 85.769531 65.390625 86.042969 64.976562 86.398438 64.621094 C 86.753906 64.265625 87.167969 63.992188 87.632812 63.796875 C 88.097656 63.605469 88.582031 63.507812 89.085938 63.507812 Z M 89.085938 76.148438 C 89.589844 76.148438 90.074219 76.246094 90.539062 76.4375 C 91.003906 76.632812 91.417969 76.90625 91.773438 77.261719 C 92.128906 77.617188 92.402344 78.027344 92.597656 78.496094 C 92.789062 78.960938 92.886719 79.445312 92.886719 79.949219 C 92.886719 80.453125 92.789062 80.9375 92.597656 81.402344 C 92.402344 81.867188 92.128906 82.277344 91.773438 82.636719 C 91.417969 82.992188 91.003906 83.265625 90.539062 83.457031 C 90.074219 83.652344 89.589844 83.746094 89.085938 83.746094 C 88.582031 83.746094 88.097656 83.652344 87.632812 83.457031 C 87.167969 83.265625 86.753906 82.992188 86.398438 82.636719 C 86.042969 82.277344 85.769531 81.867188 85.574219 81.402344 C 85.382812 80.9375 85.285156 80.453125 85.285156 79.949219 C 85.285156 79.445312 85.382812 78.960938 85.574219 78.496094 C 85.769531 78.027344 86.042969 77.617188 86.398438 77.261719 C 86.753906 76.90625 87.167969 76.632812 87.632812 76.4375 C 88.097656 76.246094 88.582031 76.148438 89.085938 76.148438 Z M 74.742188 38.445312 C 75.25 38.445312 75.734375 38.542969 76.199219 38.734375 C 76.664062 38.925781 77.078125 39.199219 77.433594 39.554688 C 77.789062 39.914062 78.066406 40.324219 78.257812 40.789062 C 78.453125 41.253906 78.546875 41.738281 78.546875 42.242188 C 78.546875 42.746094 78.453125 43.234375 78.257812 43.699219 C 78.066406 44.164062 77.792969 44.574219 77.433594 44.933594 C 77.078125 45.289062 76.667969 45.5625 76.203125 45.753906 C 75.738281 45.949219 75.25 46.042969 74.746094 46.042969 C 74.242188 46.042969 73.757812 45.949219 73.292969 45.753906 C 72.828125 45.5625 72.417969 45.285156 72.058594 44.929688 C 71.703125 44.574219 71.429688 44.160156 71.238281 43.695312 C 71.042969 43.230469 70.949219 42.746094 70.949219 42.242188 C 70.949219 41.738281 71.046875 41.253906 71.238281 40.789062 C 71.429688 40.324219 71.707031 39.914062 72.0625 39.558594 C 72.417969 39.203125 72.828125 38.929688 73.292969 38.738281 C 73.757812 38.546875 74.242188 38.449219 74.742188 38.449219 Z M 74.742188 50.902344 C 75.25 50.902344 75.734375 50.996094 76.199219 51.191406 C 76.664062 51.382812 77.078125 51.65625 77.433594 52.011719 C 77.789062 52.367188 78.066406 52.78125 78.257812 53.246094 C 78.453125 53.710938 78.546875 54.195312 78.546875 54.699219 C 78.546875 55.203125 78.453125 55.6875 78.257812 56.15625 C 78.066406 56.621094 77.792969 57.03125 77.433594 57.386719 C 77.078125 57.746094 76.667969 58.019531 76.203125 58.210938 C 75.738281 58.40625 75.25 58.5 74.746094 58.5 C 74.242188 58.5 73.757812 58.402344 73.292969 58.210938 C 72.828125 58.019531 72.417969 57.742188 72.058594 57.386719 C 71.703125 57.027344 71.429688 56.617188 71.238281 56.152344 C 71.042969 55.6875 70.949219 55.199219 70.949219 54.695312 C 70.949219 54.195312 71.046875 53.710938 71.238281 53.246094 C 71.433594 52.78125 71.707031 52.371094 72.0625 52.015625 C 72.417969 51.660156 72.828125 51.386719 73.292969 51.195312 C 73.757812 51.003906 74.242188 50.90625 74.742188 50.90625 Z M 74.742188 63.503906 C 75.246094 63.503906 75.734375 63.597656 76.199219 63.792969 C 76.664062 63.984375 77.074219 64.257812 77.433594 64.613281 C 77.789062 64.96875 78.0625 65.378906 78.257812 65.847656 C 78.449219 66.3125 78.546875 66.796875 78.546875 67.300781 C 78.546875 67.804688 78.453125 68.289062 78.261719 68.753906 C 78.066406 69.21875 77.792969 69.632812 77.4375 69.988281 C 77.082031 70.34375 76.671875 70.621094 76.203125 70.8125 C 75.738281 71.003906 75.253906 71.101562 74.75 71.101562 C 74.246094 71.101562 73.761719 71.007812 73.296875 70.8125 C 72.832031 70.621094 72.417969 70.347656 72.0625 69.992188 C 71.707031 69.632812 71.433594 69.222656 71.238281 68.757812 C 71.046875 68.292969 70.949219 67.808594 70.949219 67.304688 C 70.949219 66.800781 71.046875 66.316406 71.238281 65.851562 C 71.429688 65.386719 71.707031 64.976562 72.0625 64.621094 C 72.417969 64.265625 72.828125 63.988281 73.292969 63.796875 C 73.757812 63.605469 74.242188 63.507812 74.742188 63.507812 Z M 74.742188 76.144531 C 75.246094 76.144531 75.734375 76.238281 76.199219 76.433594 C 76.664062 76.625 77.074219 76.898438 77.433594 77.253906 C 77.789062 77.609375 78.0625 78.019531 78.257812 78.484375 C 78.449219 78.953125 78.546875 79.4375 78.546875 79.941406 C 78.546875 80.445312 78.453125 80.929688 78.261719 81.394531 C 78.066406 81.859375 77.792969 82.273438 77.4375 82.628906 C 77.082031 82.984375 76.671875 83.257812 76.203125 83.453125 C 75.738281 83.644531 75.253906 83.742188 74.75 83.742188 C 74.246094 83.742188 73.761719 83.648438 73.296875 83.453125 C 72.832031 83.261719 72.417969 82.988281 72.0625 82.628906 C 71.707031 82.273438 71.433594 81.863281 71.238281 81.398438 C 71.046875 80.933594 70.949219 80.449219 70.949219 79.945312 C 70.949219 79.441406 71.046875 78.957031 71.238281 78.492188 C 71.429688 78.027344 71.707031 77.617188 72.0625 77.261719 C 72.417969 76.90625 72.828125 76.628906 73.292969 76.4375 C 73.757812 76.246094 74.242188 76.148438 74.742188 76.148438 Z M 60.421875 38.449219 C 60.925781 38.449219 61.410156 38.546875 61.875 38.738281 C 62.34375 38.929688 62.753906 39.203125 63.109375 39.5625 C 63.46875 39.917969 63.742188 40.328125 63.9375 40.792969 C 64.128906 41.257812 64.226562 41.746094 64.226562 42.25 C 64.226562 42.753906 64.128906 43.238281 63.9375 43.703125 C 63.746094 44.167969 63.46875 44.578125 63.113281 44.9375 C 62.757812 45.292969 62.34375 45.566406 61.878906 45.761719 C 61.414062 45.953125 60.929688 46.050781 60.425781 46.050781 C 59.921875 46.050781 59.4375 45.953125 58.96875 45.757812 C 58.503906 45.566406 58.09375 45.289062 57.738281 44.933594 C 57.382812 44.578125 57.105469 44.167969 56.914062 43.699219 C 56.722656 43.234375 56.625 42.75 56.628906 42.246094 C 56.628906 41.742188 56.722656 41.257812 56.917969 40.792969 C 57.109375 40.328125 57.382812 39.917969 57.738281 39.5625 C 58.09375 39.207031 58.503906 38.933594 58.96875 38.738281 C 59.433594 38.546875 59.917969 38.449219 60.421875 38.449219 Z M 60.421875 50.90625 C 60.925781 50.90625 61.410156 51.003906 61.875 51.195312 C 62.34375 51.386719 62.753906 51.660156 63.109375 52.019531 C 63.46875 52.375 63.742188 52.785156 63.9375 53.25 C 64.128906 53.714844 64.226562 54.199219 64.226562 54.703125 C 64.226562 55.210938 64.128906 55.695312 63.9375 56.160156 C 63.746094 56.625 63.46875 57.035156 63.113281 57.394531 C 62.757812 57.75 62.34375 58.023438 61.878906 58.21875 C 61.414062 58.410156 60.929688 58.507812 60.425781 58.503906 C 59.921875 58.503906 59.4375 58.410156 58.96875 58.214844 C 58.503906 58.023438 58.09375 57.746094 57.738281 57.390625 C 57.382812 57.035156 57.105469 56.621094 56.914062 56.15625 C 56.722656 55.691406 56.625 55.207031 56.628906 54.703125 C 56.628906 54.199219 56.722656 53.714844 56.917969 53.25 C 57.109375 52.785156 57.382812 52.375 57.738281 52.019531 C 58.09375 51.664062 58.503906 51.390625 58.96875 51.199219 C 59.433594 51.003906 59.917969 50.90625 60.421875 50.90625 Z M 60.421875 63.507812 C 60.925781 63.507812 61.410156 63.605469 61.875 63.796875 C 62.34375 63.988281 62.753906 64.261719 63.109375 64.617188 C 63.46875 64.976562 63.742188 65.386719 63.933594 65.851562 C 64.128906 66.316406 64.226562 66.800781 64.226562 67.304688 C 64.226562 67.808594 64.128906 68.292969 63.9375 68.757812 C 63.746094 69.226562 63.472656 69.636719 63.113281 69.992188 C 62.757812 70.347656 62.347656 70.625 61.882812 70.816406 C 61.417969 71.011719 60.933594 71.105469 60.429688 71.105469 C 59.925781 71.109375 59.4375 71.011719 58.972656 70.820312 C 58.507812 70.625 58.097656 70.351562 57.742188 69.996094 C 57.382812 69.640625 57.109375 69.226562 56.917969 68.761719 C 56.722656 68.296875 56.628906 67.8125 56.628906 67.308594 C 56.628906 66.804688 56.722656 66.320312 56.914062 65.855469 C 57.109375 65.390625 57.382812 64.980469 57.738281 64.625 C 58.09375 64.265625 58.503906 63.992188 58.96875 63.800781 C 59.433594 63.605469 59.917969 63.507812 60.421875 63.507812 Z M 60.421875 76.148438 C 60.925781 76.148438 61.410156 76.246094 61.875 76.4375 C 62.34375 76.628906 62.753906 76.902344 63.109375 77.257812 C 63.46875 77.613281 63.742188 78.027344 63.933594 78.492188 C 64.128906 78.957031 64.226562 79.441406 64.226562 79.945312 C 64.226562 80.449219 64.128906 80.933594 63.9375 81.398438 C 63.746094 81.867188 63.472656 82.277344 63.113281 82.632812 C 62.757812 82.988281 62.347656 83.265625 61.882812 83.457031 C 61.417969 83.652344 60.933594 83.746094 60.429688 83.746094 C 59.925781 83.746094 59.4375 83.652344 58.972656 83.457031 C 58.507812 83.265625 58.097656 82.992188 57.742188 82.636719 C 57.382812 82.277344 57.109375 81.867188 56.917969 81.402344 C 56.722656 80.9375 56.628906 80.453125 56.628906 79.949219 C 56.628906 79.445312 56.722656 78.960938 56.914062 78.496094 C 57.109375 78.03125 57.382812 77.621094 57.738281 77.261719 C 58.09375 76.90625 58.503906 76.632812 58.96875 76.441406 C 59.433594 76.246094 59.917969 76.148438 60.421875 76.148438 Z M 46.0625 50.90625 C 46.566406 50.90625 47.050781 51.003906 47.515625 51.195312 C 47.980469 51.386719 48.394531 51.660156 48.75 52.019531 C 49.105469 52.375 49.382812 52.785156 49.574219 53.25 C 49.769531 53.714844 49.863281 54.199219 49.863281 54.703125 C 49.863281 55.210938 49.769531 55.695312 49.574219 56.160156 C 49.382812 56.625 49.109375 57.035156 48.753906 57.394531 C 48.394531 57.75 47.984375 58.023438 47.519531 58.21875 C 47.054688 58.410156 46.566406 58.507812 46.0625 58.503906 C 45.558594 58.503906 45.074219 58.410156 44.609375 58.214844 C 44.144531 58.023438 43.734375 57.746094 43.375 57.390625 C 43.019531 57.035156 42.746094 56.621094 42.554688 56.15625 C 42.363281 55.691406 42.265625 55.207031 42.265625 54.703125 C 42.265625 54.199219 42.363281 53.714844 42.554688 53.25 C 42.75 52.785156 43.023438 52.375 43.378906 52.019531 C 43.734375 51.664062 44.144531 51.390625 44.609375 51.199219 C 45.074219 51.003906 45.558594 50.90625 46.0625 50.90625 Z M 46.0625 63.507812 C 46.566406 63.507812 47.050781 63.605469 47.515625 63.796875 C 47.980469 63.988281 48.390625 64.261719 48.75 64.617188 C 49.105469 64.976562 49.382812 65.386719 49.574219 65.851562 C 49.765625 66.316406 49.863281 66.800781 49.863281 67.304688 C 49.867188 67.808594 49.769531 68.292969 49.578125 68.757812 C 49.382812 69.226562 49.109375 69.636719 48.753906 69.992188 C 48.398438 70.347656 47.988281 70.625 47.519531 70.816406 C 47.054688 71.011719 46.570312 71.105469 46.066406 71.105469 C 45.5625 71.109375 45.078125 71.011719 44.613281 70.820312 C 44.148438 70.625 43.734375 70.351562 43.378906 69.996094 C 43.023438 69.640625 42.75 69.226562 42.554688 68.761719 C 42.363281 68.296875 42.265625 67.8125 42.265625 67.308594 C 42.265625 66.804688 42.363281 66.320312 42.554688 65.855469 C 42.746094 65.390625 43.023438 64.980469 43.378906 64.625 C 43.734375 64.265625 44.144531 63.992188 44.609375 63.800781 C 45.074219 63.605469 45.558594 63.507812 46.0625 63.507812 Z M 46.0625 76.148438 C 46.566406 76.148438 47.050781 76.246094 47.515625 76.4375 C 47.980469 76.628906 48.390625 76.902344 48.75 77.257812 C 49.105469 77.613281 49.382812 78.027344 49.574219 78.492188 C 49.765625 78.957031 49.863281 79.441406 49.863281 79.945312 C 49.867188 80.449219 49.769531 80.933594 49.578125 81.398438 C 49.382812 81.867188 49.109375 82.277344 48.753906 82.632812 C 48.398438 82.988281 47.988281 83.265625 47.519531 83.457031 C 47.054688 83.652344 46.570312 83.746094 46.066406 83.746094 C 45.5625 83.746094 45.078125 83.652344 44.613281 83.457031 C 44.148438 83.265625 43.734375 82.992188 43.378906 82.636719 C 43.023438 82.277344 42.75 81.867188 42.554688 81.402344 C 42.363281 80.9375 42.265625 80.453125 42.265625 79.949219 C 42.265625 79.445312 42.363281 78.960938 42.554688 78.496094 C 42.746094 78.03125 43.023438 77.621094 43.378906 77.261719 C 43.734375 76.90625 44.144531 76.632812 44.609375 76.441406 C 45.074219 76.246094 45.558594 76.148438 46.0625 76.148438 Z M 31.71875 63.507812 C 32.222656 63.507812 32.707031 63.605469 33.171875 63.796875 C 33.640625 63.988281 34.050781 64.261719 34.40625 64.617188 C 34.765625 64.976562 35.039062 65.386719 35.234375 65.851562 C 35.425781 66.316406 35.523438 66.800781 35.523438 67.304688 C 35.523438 67.808594 35.425781 68.292969 35.234375 68.757812 C 35.042969 69.226562 34.769531 69.636719 34.410156 69.992188 C 34.054688 70.347656 33.644531 70.625 33.179688 70.816406 C 32.714844 71.011719 32.230469 71.105469 31.726562 71.105469 C 31.222656 71.109375 30.738281 71.011719 30.269531 70.820312 C 29.804688 70.625 29.394531 70.351562 29.039062 69.996094 C 28.679688 69.640625 28.40625 69.226562 28.214844 68.761719 C 28.019531 68.296875 27.925781 67.8125 27.925781 67.308594 C 27.925781 66.804688 28.019531 66.320312 28.214844 65.855469 C 28.40625 65.390625 28.679688 64.980469 29.035156 64.625 C 29.390625 64.265625 29.800781 63.992188 30.265625 63.800781 C 30.730469 63.605469 31.214844 63.507812 31.71875 63.507812 Z M 31.71875 76.148438 C 32.222656 76.148438 32.707031 76.246094 33.171875 76.4375 C 33.640625 76.628906 34.050781 76.902344 34.40625 77.257812 C 34.765625 77.613281 35.039062 78.027344 35.234375 78.492188 C 35.425781 78.957031 35.523438 79.441406 35.523438 79.945312 C 35.523438 80.449219 35.425781 80.933594 35.234375 81.398438 C 35.042969 81.867188 34.769531 82.277344 34.410156 82.632812 C 34.054688 82.988281 33.644531 83.265625 33.179688 83.457031 C 32.714844 83.652344 32.230469 83.746094 31.726562 83.746094 C 31.222656 83.746094 30.738281 83.652344 30.269531 83.457031 C 29.804688 83.265625 29.394531 82.992188 29.039062 82.636719 C 28.679688 82.277344 28.40625 81.867188 28.214844 81.402344 C 28.019531 80.9375 27.925781 80.453125 27.925781 79.949219 C 27.925781 79.445312 28.019531 78.960938 28.214844 78.496094 C 28.40625 78.03125 28.679688 77.621094 29.035156 77.261719 C 29.390625 76.90625 29.800781 76.632812 30.265625 76.441406 C 30.730469 76.246094 31.214844 76.148438 31.71875 76.148438 Z M 31.71875 76.148438 " fill-opacity="1" fill-rule="nonzero"/></g><g fill="#000000" fill-opacity="1"><g transform="translate(1.756589, 119.599717)"><g><path d="M 1.828125 -7.6875 L 1.828125 -17.296875 C 1.828125 -20.003906 2.5625 -21.992188 4.03125 -23.265625 C 5.5 -24.546875 7.414062 -25.1875 9.78125 -25.1875 C 12.195312 -25.1875 14.164062 -24.585938 15.6875 -23.390625 C 17.21875 -22.203125 17.984375 -20.617188 17.984375 -18.640625 C 17.984375 -17.785156 17.8125 -17.203125 17.46875 -16.890625 C 17.125 -16.585938 16.550781 -16.4375 15.75 -16.4375 C 14.28125 -16.4375 13.53125 -16.90625 13.5 -17.84375 C 13.476562 -18.144531 13.453125 -18.40625 13.421875 -18.625 C 13.390625 -18.84375 13.296875 -19.128906 13.140625 -19.484375 C 12.992188 -19.835938 12.804688 -20.132812 12.578125 -20.375 C 12.347656 -20.613281 12.003906 -20.816406 11.546875 -20.984375 C 11.085938 -21.160156 10.546875 -21.25 9.921875 -21.25 C 7.515625 -21.25 6.3125 -19.929688 6.3125 -17.296875 L 6.3125 -7.6875 C 6.3125 -5.039062 7.535156 -3.71875 9.984375 -3.71875 C 10.722656 -3.71875 11.335938 -3.832031 11.828125 -4.0625 C 12.328125 -4.289062 12.6875 -4.617188 12.90625 -5.046875 C 13.125 -5.472656 13.269531 -5.851562 13.34375 -6.1875 C 13.425781 -6.519531 13.476562 -6.925781 13.5 -7.40625 C 13.570312 -8.34375 14.304688 -8.8125 15.703125 -8.8125 C 16.515625 -8.8125 17.097656 -8.65625 17.453125 -8.34375 C 17.804688 -8.039062 17.984375 -7.460938 17.984375 -6.609375 C 17.984375 -4.546875 17.21875 -2.894531 15.6875 -1.65625 C 14.164062 -0.414062 12.1875 0.203125 9.75 0.203125 C 7.382812 0.203125 5.472656 -0.429688 4.015625 -1.703125 C 2.554688 -2.984375 1.828125 -4.976562 1.828125 -7.6875 Z M 1.828125 -7.6875 "/></g></g></g><g fill="#000000" fill-opacity="1"><g transform="translate(20.700729, 119.599717)"><g><path d="M 2.0625 -1.40625 L 2.0625 -23.8125 C 2.0625 -24.269531 2.28125 -24.613281 2.71875 -24.84375 C 3.15625 -25.070312 3.679688 -25.1875 4.296875 -25.1875 C 4.921875 -25.1875 5.453125 -25.070312 5.890625 -24.84375 C 6.328125 -24.613281 6.546875 -24.269531 6.546875 -23.8125 L 6.546875 -3.921875 L 14.953125 -3.921875 C 15.367188 -3.921875 15.695312 -3.722656 15.9375 -3.328125 C 16.175781 -2.941406 16.296875 -2.484375 16.296875 -1.953125 C 16.296875 -1.429688 16.175781 -0.972656 15.9375 -0.578125 C 15.695312 -0.191406 15.367188 0 14.953125 0 L 4.03125 0 C 3.5 0 3.035156 -0.125 2.640625 -0.375 C 2.253906 -0.632812 2.0625 -0.976562 2.0625 -1.40625 Z M 2.0625 -1.40625 "/></g></g></g><g fill="#000000" fill-opacity="1"><g transform="translate(37.371579, 119.599717)"><g><path d="M 1.96875 -7.6875 L 1.96875 -23.8125 C 1.96875 -24.269531 2.179688 -24.613281 2.609375 -24.84375 C 3.046875 -25.070312 3.578125 -25.1875 4.203125 -25.1875 C 4.828125 -25.1875 5.351562 -25.070312 5.78125 -24.84375 C 6.21875 -24.613281 6.4375 -24.269531 6.4375 -23.8125 L 6.4375 -7.6875 C 6.4375 -5.039062 7.695312 -3.71875 10.21875 -3.71875 C 12.75 -3.71875 14.015625 -5.039062 14.015625 -7.6875 L 14.015625 -23.8125 C 14.015625 -24.269531 14.234375 -24.613281 14.671875 -24.84375 C 15.109375 -25.070312 15.632812 -25.1875 16.25 -25.1875 C 16.875 -25.1875 17.40625 -25.070312 17.84375 -24.84375 C 18.28125 -24.613281 18.5 -24.269531 18.5 -23.8125 L 18.5 -7.6875 C 18.5 -4.976562 17.742188 -2.984375 16.234375 -1.703125 C 14.734375 -0.429688 12.734375 0.203125 10.234375 0.203125 C 7.734375 0.203125 5.726562 -0.425781 4.21875 -1.6875 C 2.71875 -2.945312 1.96875 -4.945312 1.96875 -7.6875 Z M 1.96875 -7.6875 "/></g></g></g><g fill="#000000" fill-opacity="1"><g transform="translate(57.831251, 119.599717)"><g><path d="M 2.0625 -1.375 L 2.0625 -23.765625 C 2.0625 -24.203125 2.253906 -24.546875 2.640625 -24.796875 C 3.035156 -25.054688 3.5 -25.1875 4.03125 -25.1875 L 10.6875 -25.1875 C 15.300781 -25.1875 17.609375 -23.164062 17.609375 -19.125 C 17.609375 -16.320312 16.628906 -14.492188 14.671875 -13.640625 C 15.847656 -13.179688 16.734375 -12.53125 17.328125 -11.6875 C 17.921875 -10.851562 18.21875 -9.632812 18.21875 -8.03125 L 18.21875 -7.296875 C 18.21875 -4.753906 17.597656 -2.898438 16.359375 -1.734375 C 15.117188 -0.578125 13.441406 0 11.328125 0 L 4.03125 0 C 3.457031 0 2.984375 -0.132812 2.609375 -0.40625 C 2.242188 -0.6875 2.0625 -1.007812 2.0625 -1.375 Z M 6.515625 -3.921875 L 10.40625 -3.921875 C 12.632812 -3.921875 13.75 -5.175781 13.75 -7.6875 L 13.75 -8.234375 C 13.75 -9.515625 13.46875 -10.441406 12.90625 -11.015625 C 12.34375 -11.597656 11.507812 -11.890625 10.40625 -11.890625 L 6.515625 -11.890625 Z M 6.515625 -15.40625 L 10.375 -15.40625 C 11.269531 -15.40625 11.953125 -15.664062 12.421875 -16.1875 C 12.890625 -16.71875 13.125 -17.441406 13.125 -18.359375 C 13.125 -19.253906 12.875 -19.957031 12.375 -20.46875 C 11.882812 -20.988281 11.207031 -21.25 10.34375 -21.25 L 6.515625 -21.25 Z M 6.515625 -15.40625 "/></g></g></g><g fill="#000000" fill-opacity="1"><g transform="translate(77.188723, 119.599717)"><g/></g></g><g fill="#000000" fill-opacity="1"><g transform="translate(84.077498, 119.599717)"><g><path d="M 2.0625 -1.375 L 2.0625 -23.8125 C 2.0625 -24.175781 2.242188 -24.492188 2.609375 -24.765625 C 2.984375 -25.046875 3.457031 -25.1875 4.03125 -25.1875 L 10.125 -25.1875 C 12.582031 -25.1875 14.546875 -24.550781 16.015625 -23.28125 C 17.484375 -22.019531 18.21875 -20.023438 18.21875 -17.296875 L 18.21875 -7.890625 C 18.21875 -5.160156 17.484375 -3.160156 16.015625 -1.890625 C 14.546875 -0.628906 12.582031 0 10.125 0 L 4.03125 0 C 3.457031 0 2.984375 -0.132812 2.609375 -0.40625 C 2.242188 -0.6875 2.0625 -1.007812 2.0625 -1.375 Z M 6.546875 -3.921875 L 10.125 -3.921875 C 12.539062 -3.921875 13.75 -5.242188 13.75 -7.890625 L 13.75 -17.296875 C 13.75 -19.929688 12.539062 -21.25 10.125 -21.25 L 6.546875 -21.25 Z M 6.546875 -3.921875 "/></g></g></g><g fill="#000000" fill-opacity="1"><g transform="translate(104.054957, 119.599717)"><g><path d="M 2.0625 -1.40625 L 2.0625 -23.765625 C 2.0625 -24.203125 2.253906 -24.546875 2.640625 -24.796875 C 3.035156 -25.054688 3.5 -25.1875 4.03125 -25.1875 L 16.296875 -25.1875 C 16.753906 -25.1875 17.101562 -24.988281 17.34375 -24.59375 C 17.582031 -24.207031 17.703125 -23.757812 17.703125 -23.25 C 17.703125 -22.695312 17.578125 -22.222656 17.328125 -21.828125 C 17.078125 -21.441406 16.734375 -21.25 16.296875 -21.25 L 6.546875 -21.25 L 6.546875 -14.359375 L 11.78125 -14.359375 C 12.21875 -14.359375 12.5625 -14.179688 12.8125 -13.828125 C 13.070312 -13.472656 13.203125 -13.054688 13.203125 -12.578125 C 13.203125 -12.140625 13.078125 -11.742188 12.828125 -11.390625 C 12.585938 -11.035156 12.238281 -10.859375 11.78125 -10.859375 L 6.546875 -10.859375 L 6.546875 -3.921875 L 16.296875 -3.921875 C 16.734375 -3.921875 17.078125 -3.722656 17.328125 -3.328125 C 17.578125 -2.941406 17.703125 -2.472656 17.703125 -1.921875 C 17.703125 -1.421875 17.582031 -0.972656 17.34375 -0.578125 C 17.101562 -0.191406 16.753906 0 16.296875 0 L 4.03125 0 C 3.5 0 3.035156 -0.125 2.640625 -0.375 C 2.253906 -0.632812 2.0625 -0.976562 2.0625 -1.40625 Z M 2.0625 -1.40625 "/></g></g></g><g fill="#000000" fill-opacity="1"><g transform="translate(122.310219, 119.599717)"><g/></g></g><g fill="#000000" fill-opacity="1"><g transform="translate(129.198994, 119.599717)"><g><path d="M 2.0625 -1.40625 L 2.0625 -23.8125 C 2.0625 -24.175781 2.21875 -24.492188 2.53125 -24.765625 C 2.84375 -25.046875 3.25 -25.1875 3.75 -25.1875 L 10.6875 -25.1875 C 13.050781 -25.1875 14.941406 -24.5625 16.359375 -23.3125 C 17.785156 -22.0625 18.5 -20.101562 18.5 -17.4375 L 18.5 -17.234375 C 18.5 -14.546875 17.757812 -12.566406 16.28125 -11.296875 C 14.800781 -10.035156 12.84375 -9.40625 10.40625 -9.40625 L 6.546875 -9.40625 L 6.546875 -1.40625 C 6.546875 -0.976562 6.320312 -0.632812 5.875 -0.375 C 5.425781 -0.125 4.90625 0 4.3125 0 C 3.6875 0 3.15625 -0.125 2.71875 -0.375 C 2.28125 -0.632812 2.0625 -0.976562 2.0625 -1.40625 Z M 6.546875 -12.921875 L 10.40625 -12.921875 C 11.550781 -12.921875 12.4375 -13.253906 13.0625 -13.921875 C 13.695312 -14.585938 14.015625 -15.570312 14.015625 -16.875 L 14.015625 -17.296875 C 14.015625 -18.609375 13.695312 -19.59375 13.0625 -20.25 C 12.4375 -20.914062 11.550781 -21.25 10.40625 -21.25 L 6.546875 -21.25 Z M 6.546875 -12.921875 "/></g></g></g><g fill="#000000" fill-opacity="1"><g transform="translate(148.38424, 119.599717)"><g><path d="M 0.3125 -1.859375 C 0.3125 -1.898438 0.332031 -2.015625 0.375 -2.203125 L 7.03125 -23.875 C 7.164062 -24.351562 7.503906 -24.722656 8.046875 -24.984375 C 8.585938 -25.253906 9.203125 -25.390625 9.890625 -25.390625 C 10.578125 -25.390625 11.195312 -25.253906 11.75 -24.984375 C 12.300781 -24.722656 12.644531 -24.351562 12.78125 -23.875 L 19.4375 -2.203125 C 19.476562 -2.015625 19.5 -1.898438 19.5 -1.859375 C 19.5 -1.359375 19.1875 -0.921875 18.5625 -0.546875 C 17.945312 -0.179688 17.316406 0 16.671875 0 C 15.828125 0 15.320312 -0.296875 15.15625 -0.890625 L 13.84375 -5.484375 L 5.953125 -5.484375 L 4.65625 -0.890625 C 4.488281 -0.296875 3.984375 0 3.140625 0 C 2.472656 0 1.832031 -0.175781 1.21875 -0.53125 C 0.613281 -0.882812 0.3125 -1.328125 0.3125 -1.859375 Z M 6.890625 -9 L 12.890625 -9 L 9.890625 -19.5625 Z M 7.40625 -29.625 C 7.40625 -30.132812 7.601562 -30.492188 8 -30.703125 L 12.546875 -32.90625 C 12.773438 -32.945312 12.921875 -32.96875 12.984375 -32.96875 C 13.359375 -32.96875 13.679688 -32.789062 13.953125 -32.4375 C 14.222656 -32.082031 14.359375 -31.695312 14.359375 -31.28125 C 14.359375 -30.78125 14.15625 -30.4375 13.75 -30.25 L 9.265625 -28.078125 C 9.035156 -27.984375 8.875 -27.9375 8.78125 -27.9375 C 8.414062 -27.9375 8.09375 -28.117188 7.8125 -28.484375 C 7.539062 -28.859375 7.40625 -29.238281 7.40625 -29.625 Z M 7.40625 -29.625 "/></g></g></g><g fill="#000000" fill-opacity="1"><g transform="translate(168.189485, 119.599717)"><g><path d="M 2.0625 -1.375 L 2.0625 -23.8125 C 2.0625 -24.175781 2.242188 -24.492188 2.609375 -24.765625 C 2.984375 -25.046875 3.457031 -25.1875 4.03125 -25.1875 L 10.125 -25.1875 C 12.582031 -25.1875 14.546875 -24.550781 16.015625 -23.28125 C 17.484375 -22.019531 18.21875 -20.023438 18.21875 -17.296875 L 18.21875 -7.890625 C 18.21875 -5.160156 17.484375 -3.160156 16.015625 -1.890625 C 14.546875 -0.628906 12.582031 0 10.125 0 L 4.03125 0 C 3.457031 0 2.984375 -0.132812 2.609375 -0.40625 C 2.242188 -0.6875 2.0625 -1.007812 2.0625 -1.375 Z M 6.546875 -3.921875 L 10.125 -3.921875 C 12.539062 -3.921875 13.75 -5.242188 13.75 -7.890625 L 13.75 -17.296875 C 13.75 -19.929688 12.539062 -21.25 10.125 -21.25 L 6.546875 -21.25 Z M 6.546875 -3.921875 "/></g></g></g><g fill="#000000" fill-opacity="1"><g transform="translate(188.166943, 119.599717)"><g><path d="M 2.0625 -1.40625 L 2.0625 -23.765625 C 2.0625 -24.203125 2.253906 -24.546875 2.640625 -24.796875 C 3.035156 -25.054688 3.5 -25.1875 4.03125 -25.1875 L 16.296875 -25.1875 C 16.753906 -25.1875 17.101562 -24.988281 17.34375 -24.59375 C 17.582031 -24.207031 17.703125 -23.757812 17.703125 -23.25 C 17.703125 -22.695312 17.578125 -22.222656 17.328125 -21.828125 C 17.078125 -21.441406 16.734375 -21.25 16.296875 -21.25 L 6.546875 -21.25 L 6.546875 -14.359375 L 11.78125 -14.359375 C 12.21875 -14.359375 12.5625 -14.179688 12.8125 -13.828125 C 13.070312 -13.472656 13.203125 -13.054688 13.203125 -12.578125 C 13.203125 -12.140625 13.078125 -11.742188 12.828125 -11.390625 C 12.585938 -11.035156 12.238281 -10.859375 11.78125 -10.859375 L 6.546875 -10.859375 L 6.546875 -3.921875 L 16.296875 -3.921875 C 16.734375 -3.921875 17.078125 -3.722656 17.328125 -3.328125 C 17.578125 -2.941406 17.703125 -2.472656 17.703125 -1.921875 C 17.703125 -1.421875 17.582031 -0.972656 17.34375 -0.578125 C 17.101562 -0.191406 16.753906 0 16.296875 0 L 4.03125 0 C 3.5 0 3.035156 -0.125 2.640625 -0.375 C 2.253906 -0.632812 2.0625 -0.976562 2.0625 -1.40625 Z M 2.0625 -1.40625 "/></g></g></g><g fill="#000000" fill-opacity="1"><g transform="translate(206.422205, 119.599717)"><g><path d="M 2.0625 -1.40625 L 2.0625 -23.8125 C 2.0625 -24.269531 2.28125 -24.613281 2.71875 -24.84375 C 3.15625 -25.070312 3.679688 -25.1875 4.296875 -25.1875 C 4.921875 -25.1875 5.453125 -25.070312 5.890625 -24.84375 C 6.328125 -24.613281 6.546875 -24.269531 6.546875 -23.8125 L 6.546875 -3.921875 L 14.953125 -3.921875 C 15.367188 -3.921875 15.695312 -3.722656 15.9375 -3.328125 C 16.175781 -2.941406 16.296875 -2.484375 16.296875 -1.953125 C 16.296875 -1.429688 16.175781 -0.972656 15.9375 -0.578125 C 15.695312 -0.191406 15.367188 0 14.953125 0 L 4.03125 0 C 3.5 0 3.035156 -0.125 2.640625 -0.375 C 2.253906 -0.632812 2.0625 -0.976562 2.0625 -1.40625 Z M 2.0625 -1.40625 "/></g></g></g></svg>